{"title":"Blue Bloods S06E02 1080p WEB-DL","uid":12522314,"size":1725597863,"categoryP":"video","categoryS":"hd___tv_shows","magnet":"?xt=urn:btih:7e3d1594eaee6077fb27f4a9e4a13a4cd229f36f&amp;dn=Blue+Bloods+S06E02+1080p+WEB-DL&amp;tr=udp%3A%2F%2Ftracker.leechers-paradise.org%3A6969&amp;tr=udp%3A%2F%2Fzer0day.ch%3A1337&amp;tr=udp%3A%2F%2Fopen.demonii.com%3A1337&amp;tr=udp%3A%2F%2Ftracker.coppersurfer.tk%3A6969&amp;tr=udp%3A%2F%2Fexodus.desync.com%3A6969","seeders":0,"leechers":1,"uploader":"Joker__TPB","files":3,"time":1443902367,"description":"===================================================================================\r\nBlue Bloods follows the lives of the NYPD's First Family of Law Enforcement: the Reagans. Frank| the Police Comissioner and son of former PC Henry Reagan| must\r\nbalance his duties of running the largest police force in the world and being his kids' boss. His daughter Erin is an Assistant District Attorney| son Danny is a\r\nsenior detective and fellow Marine Veteran| and new Harvard Law grad turned cop| Jamie all swirl through this family drama and passionately defend their city from\r\nharm. The Irish-American family is deeply rooted in their patriotism| passion| and love of family.\r\n===================================================================================\r\nscreens: \nhttp://extraimago.com/image/hVK\r\n===================================================================================\r\nmedia info:\r\nVideo\r\nID                                       : 2\r\nFormat                                   : AVC\r\nFormat/Info                              : Advanced Video Codec\r\nFormat profile                           :   \r\nFormat settings, CABAC                   : Yes\r\nFormat settings, ReFrames                : 4 frames\r\nCodec ID                                 : V_MPEG4/ISO/AVC\r\nDuration                                 : 43mn 23s\r\nBit rate                                 : 4 812 Kbps\r\nWidth                                    : 1 920 pixels\r\nHeight                                   : 1 080 pixels\r\nDisplay aspect ratio                     : 16:9\r\nFrame rate mode                          : Constant\r\nFrame rate                               : 23.976 fps\r\nColor space                              : YUV\r\nChroma subsampling                       : 4:2:0\r\nBit depth                                : 8 bits\r\nScan type                                : Progressive\r\nBits/(Pixel*Frame)                       : 0.097\r\nStream size                              : 1.46 GiB (91%)\r\nLanguage                                 : English\r\nDefault                                  : Yes\r\nForced                                   : No\r\nColor range                              : Limited\r\nColor primaries                          : BT.709\r\nTransfer characteristics                 : BT.709\r\nMatrix coefficients                      : BT.709\r\n\r\nAudio\r\nID                                       : 3\r\nFormat                                   : AC-3\r\nFormat/Info                              : Audio Coding 3\r\nMode extension                           : CM (complete main)\r\nFormat settings, Endianness              : Big\r\nCodec ID                                 : A_AC3\r\nDuration                                 : 43mn 23s\r\nBit rate mode                            : Constant\r\nBit rate                                 : 384 Kbps\r\nChannel(s)                               : 6 channels\r\nChannel positions                        : Front: L C R, Side: L R, LFE\r\nSampling rate                            : 48.0 KHz\r\nCompression mode                         : Lossy\r\nStream size                              : 119 MiB (7%)\r\nLanguage                                 : English\r\nDefault                                  : Yes\r\nForced                                   : No\r\n\r\nText\r\nID                                       : 1\r\nFormat                                   : UTF-8\r\nCodec ID                                 : S_TEXT/UTF8\r\nCodec ID/Info                            : UTF-8 Plain Text\r\nDefault                                  : Yes\r\nForced                                   : No\r\n===================================================================================","torrent":{"xt":"urn:btih:7e3d1594eaee6077fb27f4a9e4a13a4cd229f36f","amp;dn":"Blue+Bloods+S06E02+1080p+WEB-DL","amp;tr":["udp%3A%2F%2Ftracker.leechers-paradise.org%3A6969","udp%3A%2F%2Fzer0day.ch%3A1337","udp%3A%2F%2Fopen.demonii.com%3A1337","udp%3A%2F%2Ftracker.coppersurfer.tk%3A6969","udp%3A%2F%2Fexodus.desync.com%3A6969"],"infoHash":"7e3d1594eaee6077fb27f4a9e4a13a4cd229f36f","infoHashBuffer":{"type":"Buffer","data":[126,61,21,148,234,238,96,119,251,39,244,169,228,161,58,76,210,41,243,111]},"announce":[],"urlList":[]}}